<?xml version="1.0" standalone="no"?>
<!DOCTYPE svg PUBLIC "-//W3C//DTD SVG 20010904//EN"
 "http://www.w3.org/TR/2001/REC-SVG-20010904/DTD/svg10.dtd">
<svg version="1.0" xmlns="http://www.w3.org/2000/svg"
 width="2160.000000pt" height="2160.000000pt" viewBox="0 0 2160.000000 2160.000000"
 preserveAspectRatio="xMidYMid meet">
<metadata>
Created by potrace 1.11, written by Peter Selinger 2001-2013
</metadata>
<g transform="translate(0.000000,2160.000000) scale(0.100000,-0.100000)"
fill="#000000" stroke="none">
<path d="M5700 18323 c-609 -47 -1156 -299 -1585 -728 -390 -390 -633 -878
-711 -1430 -18 -125 -19 -325 -19 -5465 0 -5140 1 -5340 19 -5465 77 -545 321
-1038 701 -1421 138 -138 229 -214 382 -317 306 -207 630 -334 1021 -400 l127
-21 5070 -3 c3657 -3 5106 -1 5200 7 1217 104 2171 1052 2284 2270 15 162 15
10538 0 10700 -112 1213 -1064 2163 -2274 2269 -82 7 -1704 10 -5145 9 -2764
-1 -5045 -3 -5070 -5z m9760 -1805 c270 -69 442 -162 621 -336 188 -182 307
-404 361 -672 11 -53 13 -955 13 -4810 0 -4557 -1 -4748 -18 -4828 -55 -248
-165 -452 -340 -630 -174 -176 -370 -284 -632 -349 -66 -16 -345 -17 -4615
-21 -3389 -2 -4569 0 -4640 9 -274 33 -517 154 -721 358 -184 183 -289 376
-346 633 -17 80 -18 272 -18 4833 0 4561 1 4753 18 4833 54 246 158 442 328
617 193 199 437 329 699 370 70 11 882 13 4655 11 4207 -2 4575 -3 4635 -18z"/>
<path d="M6740 14352 c-13 -14 -15 -144 -18 -1010 -1 -679 1 -999 8 -1012 11
-20 48 -20 4063 -20 3139 0 4056 3 4065 12 9 9 12 248 12 1013 0 958 -1 1003
-18 1018 -17 16 -313 17 -4058 17 -3776 -1 -4040 -2 -4054 -18z"/>
<path d="M11365 11810 l-1030 -5 -205 -124 c-198 -120 -589 -360 -660 -406
-19 -12 -120 -75 -225 -140 -104 -65 -192 -120 -194 -122 -2 -2 925 -3 2061
-3 l2064 0 270 168 c148 93 418 261 599 374 287 178 330 208 333 231 3 22 -1
27 -20 27 -13 0 -459 1 -993 2 -533 2 -1433 1 -2000 -2z"/>
<path d="M8375 10591 c-121 -76 -319 -201 -440 -277 -121 -75 -249 -156 -285
-179 -58 -38 -245 -156 -402 -254 -47 -30 -58 -41 -58 -63 l0 -28 2013 0 2012
0 275 172 c535 333 718 447 950 591 129 80 244 152 255 161 18 14 -183 15
-2040 15 l-2060 1 -220 -139z"/>
<path d="M6745 9284 c-20 -15 -20 -27 -20 -1019 0 -992 0 -1004 20 -1019 18
-14 470 -15 4050 -16 3632 0 4033 2 4053 16 l22 15 0 1004 0 1004 -22 15 c-20
14 -421 16 -4053 16 -3580 -1 -4032 -2 -4050 -16z"/>
</g>
</svg>
